# xmcd CD database file
#
# Track frame offsets:
#	150
#	14599
#	26777
#	45223
#	62199
#	80556
#	93732
#	109089
#	128105
#	143813
#
# Disc length: 2128 seconds
#
# Revision: 1
# Processed by: cddbd v1.5.2PL0 Copyright (c) Steve Scherf et al.
# Submitted via: CDex 1.51
#
DISCID=86084e0a
DTITLE=Lost Trailers - Holler Back
DYEAR=2008
DGENRE=Country
TTITLE0=Holler Back
TTITLE1=How 'Bout You Don't
TTITLE2=Blacktop Road
TTITLE3=Country Folks (Livin' Loud)
TTITLE4=Things You Don't Grow Out Of
TTITLE5=Hey Baby
TTITLE6=The Rest Of Us
TTITLE7=All This Love
TTITLE8=Summer Of Love
TTITLE9=Gravy
EXTD=YEAR: 2008
EXTT0=
EXTT1=
EXTT2=
EXTT3=
EXTT4=
EXTT5=
EXTT6=
EXTT7=
EXTT8=
EXTT9=
PLAYORDER=
